<svg xmlns="http://www.w3.org/2000/svg"  viewBox="0 0 64 64" width="512px" height="512px"><linearGradient id="_RxZ4dA~JppGGiCIigUvGa" x1="46" x2="46" y1="23.62" y2="39.757" gradientUnits="userSpaceOnUse"><stop offset="0" stop-color="#6dc7ff"/><stop offset="1" stop-color="#e6abff"/></linearGradient><polygon fill="url(#_RxZ4dA~JppGGiCIigUvGa)" points="56,21.995 56,33.47 45.51,22.98 43.24,25.249 43.243,25.252 39.69,28.805 35,33.495 35,30.995 29,36.995 29,39.495 29,39.995 29,41.995 35,41.995 35.525,42.02 45.513,32.033 55.484,42.005 56,41.995 63,41.995 63,21.995"/><linearGradient id="_RxZ4dA~JppGGiCIigUvGb" x1="18" x2="18" y1="23.62" y2="39.757" gradientUnits="userSpaceOnUse"><stop offset="0" stop-color="#6dc7ff"/><stop offset="1" stop-color="#e6abff"/></linearGradient><polygon fill="url(#_RxZ4dA~JppGGiCIigUvGb)" points="29,30.515 29,30.583 29,32.995 35,26.995 35,24.583 35,23.995 35,21.995 29,21.995 28.484,21.98 18.497,31.967 8.525,21.995 8,21.995 1,21.995 1,41.995 8,41.995 8,30.52 18.5,41.02 23.025,36.495 23.022,36.492"/><g><linearGradient id="_RxZ4dA~JppGGiCIigUvGc" x1="46" x2="46" y1="16.329" y2="43.458" gradientUnits="userSpaceOnUse"><stop offset="0" stop-color="#1a6dff"/><stop offset="1" stop-color="#c822ff"/></linearGradient><path fill="url(#_RxZ4dA~JppGGiCIigUvGc)" d="M35.525,43.02c-0.016,0-0.031,0-0.047-0.001l-0.525-0.025L29,42.995c-0.553,0-1-0.448-1-1 v-5c0-0.265,0.105-0.52,0.293-0.707l6-6c0.286-0.287,0.716-0.371,1.09-0.217C35.757,30.226,36,30.591,36,30.995v0.086l6.472-6.472 c0.02-0.023,0.04-0.046,0.062-0.067l2.27-2.27c0.391-0.391,1.023-0.391,1.414,0L55,31.056v-9.061c0-0.552,0.447-1,1-1h7 c0.553,0,1,0.448,1,1v20c0,0.552-0.447,1-1,1l-7.497,0.01c-0.283-0.01-0.534-0.101-0.726-0.293l-9.265-9.265l-9.28,9.28 C36.045,42.915,35.79,43.02,35.525,43.02z M30,40.995l5.13,0.006l9.676-9.675c0.375-0.375,1.039-0.375,1.414,0l9.671,9.671 l0.091-0.002H62v-18h-5V33.47c0,0.404-0.243,0.769-0.617,0.924c-0.373,0.155-0.803,0.07-1.09-0.217l-9.783-9.783l-1.498,1.498 c-0.02,0.023-0.04,0.046-0.062,0.067l-8.243,8.243c-0.286,0.287-0.716,0.372-1.09,0.217C34.243,34.264,34,33.9,34,33.495v-0.086 l-4,4V40.995z"/><linearGradient id="_RxZ4dA~JppGGiCIigUvGd" x1="18" x2="18" y1="16.329" y2="43.458" gradientUnits="userSpaceOnUse"><stop offset="0" stop-color="#1a6dff"/><stop offset="1" stop-color="#c822ff"/></linearGradient><path fill="url(#_RxZ4dA~JppGGiCIigUvGd)" d="M8,42.995H1c-0.553,0-1-0.448-1-1v-20c0-0.552,0.447-1,1-1h7.525 c0.266,0,0.52,0.105,0.707,0.293l9.265,9.265l9.28-9.28c0.194-0.195,0.473-0.299,0.737-0.292l0.516,0.016l5.97,0 c0.553,0,1,0.448,1,1v5c0,0.265-0.105,0.52-0.293,0.707l-6,6c-0.286,0.286-0.717,0.371-1.09,0.217 C28.243,33.764,28,33.4,28,32.995v-0.066l-4.207,4.207c-0.019,0.023-0.039,0.045-0.061,0.066l-4.525,4.525 c-0.391,0.391-1.023,0.391-1.414,0L9,32.934v9.061C9,42.548,8.553,42.995,8,42.995z M2,40.995h5V30.52 c0-0.404,0.243-0.769,0.617-0.924c0.374-0.154,0.804-0.069,1.09,0.217l9.793,9.793l3.754-3.753c0.02-0.023,0.04-0.046,0.062-0.067 l5.978-5.978c0.286-0.286,0.716-0.371,1.09-0.217C29.757,29.745,30,30.11,30,30.514v0.067l4-4v-3.586l-5.113-0.003l-9.683,9.682 c-0.391,0.391-1.023,0.391-1.414,0l-9.679-9.679H2V40.995z"/></g></svg>