<svg fill="#26e07f" xmlns="http://www.w3.org/2000/svg"  viewBox="0 0 64 64" width="512px" height="512px"><path d="M 1 17 A 1.0001 1.0001 0 0 0 0 18 L 0 43 A 1.0001 1.0001 0 0 0 1 44 L 7 44 A 1.0001 1.0001 0 0 0 8 43 L 8 28.945312 L 17.634766 40.365234 A 1.0001 1.0001 0 0 0 19.179688 40.345703 L 28 29.361328 L 28 31.800781 A 1.0001 1.0001 0 0 0 29.740234 32.472656 L 35.740234 25.873047 A 1.0001 1.0001 0 0 0 36 25.199219 L 36 18 A 1.0001 1.0001 0 0 0 35 17 L 28.150391 17 A 1.0001 1.0001 0 0 0 27.371094 17.373047 L 18.261719 28.707031 L 8.6835938 17.355469 A 1.0001 1.0001 0 0 0 7.9199219 17 L 1 17 z M 57 17 A 1.0001 1.0001 0 0 0 56 18 L 56 31.638672 L 47.179688 20.654297 A 1.0001 1.0001 0 0 0 45.634766 20.634766 L 36 32.054688 L 36 30.199219 A 1.0001 1.0001 0 0 0 34.259766 29.527344 L 28.259766 36.126953 A 1.0001 1.0001 0 0 0 28 36.800781 L 28 43 A 1.0001 1.0001 0 0 0 29 44 L 35.919922 44 A 1.0001 1.0001 0 0 0 36.683594 43.644531 L 46.261719 32.292969 L 55.371094 43.626953 A 1.0001 1.0001 0 0 0 56.150391 44 L 63 44 A 1.0001 1.0001 0 0 0 64 43 L 64 18 A 1.0001 1.0001 0 0 0 63 17 L 57 17 z M 2 19 L 7.4550781 19 L 17.515625 30.925781 A 1.0001 1.0001 0 0 0 19.058594 30.90625 L 28.628906 19 L 34 19 L 34 24.8125 L 30 29.212891 L 30 26.519531 A 1.0001 1.0001 0 0 0 28.220703 25.894531 L 18.380859 38.146484 L 7.7636719 25.564453 A 1.0001 1.0001 0 0 0 6 26.210938 L 6 42 L 2 42 L 2 19 z M 58 19 L 62 19 L 62 42 L 56.628906 42 L 47.058594 30.09375 A 1.0001 1.0001 0 0 0 45.515625 30.074219 L 35.455078 42 L 30 42 L 30 37.1875 L 34 32.787109 L 34 34.789062 A 1.0001 1.0001 0 0 0 35.763672 35.435547 L 46.380859 22.853516 L 56.220703 35.105469 A 1.0001 1.0001 0 0 0 58 34.480469 L 58 19 z M 2.0019531 46.882812 C 1.4509531 46.882813 1.0029531 47.328859 1.0019531 47.880859 L 0.99804688 49.880859 C 0.99704687 50.432859 1.4440937 50.881813 1.9960938 50.882812 L 1.9980469 50.882812 C 2.5490469 50.882812 2.9970469 50.436766 2.9980469 49.884766 L 3.0019531 47.884766 C 3.0029531 47.332766 2.5559063 46.883812 2.0039062 46.882812 L 2.0019531 46.882812 z M 7.0019531 46.892578 C 6.4509531 46.892578 6.0029531 47.338625 6.0019531 47.890625 L 5.9980469 49.890625 C 5.9970469 50.442625 6.4440938 50.891578 6.9960938 50.892578 L 6.9980469 50.892578 C 7.5490469 50.892578 7.9970469 50.445531 7.9980469 49.894531 L 8.0019531 47.894531 C 8.0029531 47.342531 7.5559062 46.893578 7.0039062 46.892578 L 7.0019531 46.892578 z M 12.001953 46.900391 C 11.450953 46.900391 11.002953 47.346438 11.001953 47.898438 L 10.998047 49.898438 C 10.997047 50.450438 11.444094 50.899391 11.996094 50.900391 L 11.998047 50.900391 C 12.549047 50.900391 12.997047 50.454344 12.998047 49.902344 L 13.001953 47.902344 C 13.002953 47.350344 12.555906 46.901391 12.003906 46.900391 L 12.001953 46.900391 z M 17.001953 46.910156 C 16.450953 46.910156 16.002953 47.356203 16.001953 47.908203 L 15.998047 49.908203 C 15.997047 50.460203 16.444094 50.909156 16.996094 50.910156 L 16.998047 50.910156 C 17.549047 50.910156 17.997047 50.464109 17.998047 49.912109 L 18.001953 47.912109 C 18.002953 47.360109 17.555906 46.911156 17.003906 46.910156 L 17.001953 46.910156 z M 22.001953 46.919922 C 21.450953 46.919922 21.002953 47.365969 21.001953 47.917969 L 20.998047 49.917969 C 20.997047 50.469969 21.444094 50.918922 21.996094 50.919922 L 21.998047 50.919922 C 22.549047 50.919922 22.997047 50.473875 22.998047 49.921875 L 23.001953 47.921875 C 23.002953 47.369875 22.555906 46.920922 22.003906 46.919922 L 22.001953 46.919922 z M 27.001953 46.927734 C 26.450953 46.927734 26.002953 47.373781 26.001953 47.925781 L 25.998047 49.925781 C 25.997047 50.477781 26.444094 50.926734 26.996094 50.927734 L 26.998047 50.927734 C 27.549047 50.927734 27.997047 50.481687 27.998047 49.929688 L 28.001953 47.929688 C 28.002953 47.377688 27.555906 46.928734 27.003906 46.927734 L 27.001953 46.927734 z M 32.001953 46.9375 C 31.450953 46.9375 31.002953 47.383547 31.001953 47.935547 L 30.998047 49.935547 C 30.997047 50.487547 31.444094 50.9365 31.996094 50.9375 L 31.998047 50.9375 C 32.549047 50.9375 32.997047 50.490453 32.998047 49.939453 L 33.001953 47.939453 C 33.002953 47.387453 32.555906 46.9385 32.003906 46.9375 L 32.001953 46.9375 z M 37.001953 46.947266 C 36.450953 46.947266 36.002953 47.393313 36.001953 47.945312 L 35.998047 49.945312 C 35.997047 50.497312 36.444094 50.946266 36.996094 50.947266 L 36.998047 50.947266 C 37.549047 50.947266 37.997047 50.500219 37.998047 49.949219 L 38.001953 47.949219 C 38.002953 47.397219 37.555906 46.948266 37.003906 46.947266 L 37.001953 46.947266 z M 42.001953 46.955078 C 41.450953 46.955078 41.002953 47.401125 41.001953 47.953125 L 40.998047 49.953125 C 40.997047 50.505125 41.444094 50.954078 41.996094 50.955078 L 41.998047 50.955078 C 42.549047 50.955078 42.997047 50.509031 42.998047 49.957031 L 43.001953 47.957031 C 43.002953 47.405031 42.555906 46.956078 42.003906 46.955078 L 42.001953 46.955078 z M 47.001953 46.964844 C 46.450953 46.964844 46.002953 47.410891 46.001953 47.962891 L 45.998047 49.962891 C 45.997047 50.514891 46.444094 50.963844 46.996094 50.964844 L 46.998047 50.964844 C 47.549047 50.964844 47.997047 50.518797 47.998047 49.966797 L 48.001953 47.966797 C 48.002953 47.414797 47.555906 46.965844 47.003906 46.964844 L 47.001953 46.964844 z M 52.001953 46.974609 C 51.450953 46.974609 51.002953 47.420656 51.001953 47.972656 L 50.998047 49.972656 C 50.997047 50.524656 51.444094 50.973609 51.996094 50.974609 L 51.998047 50.974609 C 52.549047 50.974609 52.997047 50.528562 52.998047 49.976562 L 53.001953 47.976562 C 53.002953 47.424562 52.555906 46.975609 52.003906 46.974609 L 52.001953 46.974609 z M 57.001953 46.982422 C 56.450953 46.982422 56.002953 47.428469 56.001953 47.980469 L 55.998047 49.980469 C 55.997047 50.532469 56.444094 50.981422 56.996094 50.982422 L 56.998047 50.982422 C 57.549047 50.982422 57.997047 50.536375 57.998047 49.984375 L 58.001953 47.984375 C 58.002953 47.432375 57.555906 46.983422 57.003906 46.982422 L 57.001953 46.982422 z M 62.001953 46.992188 C 61.450953 46.992188 61.002953 47.438234 61.001953 47.990234 L 60.998047 49.990234 C 60.997047 50.542234 61.444094 50.991188 61.996094 50.992188 L 61.998047 50.992188 C 62.549047 50.992187 62.997047 50.545141 62.998047 49.994141 L 63.001953 47.994141 C 63.002953 47.442141 62.555906 46.993187 62.003906 46.992188 L 62.001953 46.992188 z"/></svg>